<svg xmlns="http://www.w3.org/2000/svg" width="213" height="64" viewBox="0 0 213 64">
    <g fill="none" fill-rule="evenodd">
        <rect width="213" height="64" fill="#000" rx="10"/>
        <path fill="#FFF" fill-rule="nonzero" d="M110.766 37.27c-3.506.017-6.335 2.934-6.324 6.519.01 3.584 2.858 6.483 6.363 6.477 3.506-.005 6.344-2.913 6.344-6.498.025-1.736-.64-3.408-1.844-4.633-1.204-1.225-2.842-1.898-4.54-1.865zm0 10.443c-1.58.113-3.067-.773-3.75-2.235-.683-1.461-.422-3.201.656-4.387 1.079-1.186 2.757-1.577 4.232-.986 1.474.59 2.446 2.044 2.45 3.663.048 1.013-.305 2.004-.98 2.747-.676.742-1.617 1.174-2.608 1.198zM96.846 37.27c-3.507.009-6.344 2.922-6.338 6.508.005 3.587 2.851 6.491 6.359 6.488 3.507-.003 6.349-2.911 6.349-6.498.024-1.736-.641-3.408-1.845-4.633-1.203-1.225-2.842-1.898-4.54-1.865h.016zm0 10.443c-1.58.12-3.071-.762-3.759-2.223-.687-1.46-.431-3.203.646-4.392 1.077-1.189 2.756-1.583 4.232-.994 1.477.59 2.45 2.043 2.455 3.664.048 1.013-.305 2.004-.98 2.747-.676.742-1.617 1.174-2.608 1.198h.015zm-16.58-8.44v2.752h6.46c-.102 1.297-.629 2.52-1.496 3.471-1.306 1.361-3.115 2.094-4.978 2.018-3.964 0-7.177-3.286-7.177-7.339 0-4.053 3.213-7.339 7.177-7.339 1.82-.03 3.578.68 4.888 1.973l1.9-1.942c-1.788-1.85-4.23-2.882-6.773-2.86-3.62-.143-7.027 1.75-8.878 4.933-1.852 3.184-1.852 7.149 0 10.333 1.851 3.184 5.258 5.076 8.878 4.932 2.589.12 5.102-.912 6.892-2.828 1.566-1.76 2.402-4.074 2.332-6.453.005-.58-.045-1.158-.15-1.727l-9.074.076zm67.741 2.14c-.798-2.401-2.963-4.05-5.442-4.143-1.653-.003-3.233.693-4.366 1.924-1.133 1.231-1.717 2.887-1.614 4.574-.037 1.727.615 3.395 1.805 4.62 1.19 1.226 2.816 1.904 4.504 1.878 2.124.012 4.113-1.068 5.293-2.874l-2.168-1.53c-.658 1.123-1.845 1.808-3.125 1.805-1.325.052-2.546-.73-3.08-1.972l8.507-3.593-.314-.688zm-8.671 2.172c-.061-.956.256-1.896.88-2.61.625-.713 1.504-1.139 2.439-1.182.986-.066 1.915.475 2.362 1.376l-5.681 2.416zm-6.907 6.3h2.796V30.771h-2.796v19.112zm-4.575-11.162h-.105c-.852-.975-2.07-1.531-3.349-1.53-3.393.17-6.06 3.032-6.06 6.506 0 3.475 2.667 6.338 6.06 6.506 1.283.022 2.51-.538 3.35-1.529h.089v.933c0 2.492-1.3 3.822-3.394 3.822-1.426-.034-2.69-.946-3.2-2.308l-2.436 1.04c.938 2.334 3.168 3.852 5.636 3.837 3.274 0 5.98-1.972 5.98-6.773V37.652h-2.571v1.07zm-3.2 8.99c-1.998-.18-3.532-1.892-3.532-3.945 0-2.052 1.534-3.764 3.533-3.944.966.05 1.87.498 2.51 1.24.638.743.957 1.718.883 2.704.083.991-.235 1.973-.879 2.718-.644.746-1.558 1.189-2.53 1.227h.016zm36.45-16.94h-6.683v19.111h2.796v-7.247h3.902c2.172.16 4.249-.935 5.382-2.836 1.134-1.902 1.134-4.291 0-6.193-1.133-1.9-3.21-2.995-5.382-2.836h-.015zm0 9.173h-3.902v-6.513h3.962c1.77 0 3.207 1.468 3.207 3.28 0 1.81-1.436 3.279-3.207 3.279l-.06-.046zm17.238-2.752c-2.08-.127-4.036 1.02-4.979 2.92l2.482 1.055c.5-.942 1.497-1.494 2.542-1.407.717-.085 1.437.127 2 .59.562.463.918 1.137.99 1.872v.199c-.898-.486-1.9-.739-2.916-.734-2.676 0-5.382 1.529-5.382 4.296.054 1.192.576 2.312 1.45 3.104.872.792 2.021 1.189 3.185 1.1 1.434.106 2.81-.597 3.588-1.834h.09v1.53h2.69V42.53c0-3.349-2.481-5.29-5.665-5.29l-.075-.046zm-.344 10.473c-.912 0-2.183-.474-2.183-1.62 0-1.53 1.585-2.034 2.99-2.034.888-.023 1.766.2 2.542.642-.193 1.712-1.59 3.016-3.274 3.058l-.075-.046zm15.892-10.015l-3.2 8.287h-.089l-3.319-8.287h-2.99l4.979 11.59-2.841 6.437h2.915L197 37.652h-3.11zM168.76 49.884h2.795V30.772h-2.795v19.112z"/>
        <text fill="#FFF" font-family="Helvetica" font-size="15" letter-spacing="1.2">
            <tspan x="68.928" y="23">Download on</tspan>
        </text>
        <path fill="#FFF" fill-rule="nonzero" d="M16 49.264V14.74c0-1.204.698-2.246 1.712-2.74l19.97 19.996L17.704 52C16.694 51.504 16 50.465 16 49.264zM44.018 38.34L22.182 50.963 39.403 33.72l4.615 4.62zm6.787-8.758c.726.556 1.195 1.433 1.195 2.42 0 .972-.454 1.837-1.162 2.395L46.2 37.078l-5.076-5.082 5.072-5.079 4.61 2.665zm-28.61-16.54l21.82 12.614-4.612 4.617-17.209-17.231z"/>
    </g>
</svg>
