<svg width="374" height="1080" viewBox="0 0 374 1080" fill="none" xmlns="http://www.w3.org/2000/svg">
<g clip-path="url(#clip0_2_66)">
<rect width="374" height="1080" fill="white"/>
<path d="M164.411 -38.5166C162.234 -35.0351 160.302 -31.3117 158.656 -27.3665C144.51 6.54642 156.893 43.9869 186.315 56.2592C204.316 63.7679 224.526 60.1148 240.741 48.3787C246.262 61.199 255.952 71.5751 268.985 77.0116C298.124 89.166 333.047 72.0746 347.457 38.7998L347.463 38.8026C380.153 52.4383 412.799 32.2316 428.517 -5.45001C444.235 -43.1317 437.072 -84.0177 404.382 -97.6534L230.193 -170.311C197.504 -183.946 158.262 -164.454 142.544 -126.772C128.332 -92.7003 138.22 -55.4265 164.411 -38.5166Z" fill="url(#paint0_linear_2_66)"/>
<path fill-rule="evenodd" clip-rule="evenodd" d="M274.425 389.697V389.697L275.212 388.847L276.017 388.01L276.841 387.185L277.684 386.374L278.544 385.576L279.422 384.792L280.317 384.022L281.228 383.267L282.154 382.526L283.097 381.8L284.053 381.088L285.025 380.391L286.01 379.708L287.008 379.04L288.019 378.387L289.042 377.749L290.077 377.124L291.124 376.514L292.182 375.918L293.25 375.336L294.328 374.768L295.417 374.213L296.515 373.671L297.622 373.143L298.738 372.628L299.863 372.125L300.997 371.635L302.139 371.158L303.289 370.693L304.447 370.24L305.613 369.799L306.787 369.37L307.969 368.953L309.158 368.549L310.354 368.156L311.558 367.776L312.768 367.408L313.987 367.053L315.212 366.71L316.444 366.38L317.682 366.064L318.928 365.761L320.179 365.473L321.437 365.199L322.702 364.94L323.971 364.697L325.247 364.469L326.528 364.258L327.813 364.064L329.104 363.888L330.398 363.73L331.696 363.59L332.998 363.469L334.302 363.369L335.609 363.288L336.918 363.228L338.228 363.19L339.539 363.174L340.85 363.18L342.16 363.209L343.47 363.262L344.777 363.339L346.082 363.44L347.383 363.566L348.68 363.718L349.973 363.895L351.259 364.098L352.539 364.328L353.812 364.585L355.076 364.868L356.332 365.179L357.577 365.518L358.811 365.885L360.034 366.279L361.243 366.702L362.439 367.153L363.621 367.632L364.786 368.14L365.935 368.676L367.067 369.241L368.18 369.834L369.274 370.455L370.347 371.104L371.399 371.781L372.43 372.485L373.438 373.216L374.422 373.974L375.381 374.759L376.316 375.569L377.224 376.405L378.106 377.265L378.961 378.15L379.788 379.058L380.586 379.989L381.356 380.943L382.097 381.918L382.807 382.914L383.487 383.93L384.137 384.965L384.756 386.018L385.344 387.089L385.901 388.176L386.426 389.279L386.919 390.397L387.381 391.529L387.811 392.674L388.21 393.83L388.577 394.998L388.912 396.177L389.216 397.364L389.489 398.56L389.731 399.763L389.942 400.973L390.123 402.189L390.274 403.409L390.395 404.633L390.487 405.86L390.55 407.089L390.584 408.32L390.591 409.551L390.571 410.782L390.524 412.011L390.451 413.239L390.352 414.464L390.229 415.686L390.082 416.904L389.912 418.117L389.719 419.325L389.505 420.527L389.269 421.723L389.013 422.912L388.738 424.094L388.444 425.268L388.132 426.433L387.803 427.59L387.458 428.738L387.097 429.877L386.722 431.006L386.332 432.125L385.929 433.235L385.513 434.334L385.085 435.423L384.645 436.501L384.194 437.57L383.732 438.627L383.26 439.674L382.778 440.71L382.287 441.736L381.787 442.751L381.278 443.755L380.76 444.749L380.234 445.732L379.699 446.705L379.157 447.667L378.607 448.618L378.049 449.559L377.484 450.489L376.911 451.408L376.33 452.318L375.742 453.216L375.147 454.104L374.545 454.981L373.935 455.848L373.317 456.704L372.693 457.549L372.061 458.383L371.421 459.207L370.775 460.02L370.121 460.821L369.46 461.612L368.791 462.391L368.116 463.159L367.433 463.915L366.743 464.66L366.046 465.393L365.342 466.114L364.632 466.824L363.914 467.521L363.191 468.207L362.46 468.88L361.724 469.54L360.982 470.189L360.235 470.825L359.482 471.448L358.724 472.059L357.961 472.657L357.193 473.243L356.421 473.816L355.645 474.377L354.865 474.925L354.082 475.46L353.295 475.982L352.506 476.492L351.713 476.989L350.918 477.474L350.121 477.946L349.321 478.405L348.52 478.852L347.718 479.287L346.914 479.709L346.109 480.118L345.303 480.516L344.496 480.901L343.69 481.274L342.883 481.635L342.076 481.984L341.27 482.321L340.464 482.646L339.659 482.96L338.855 483.263L338.052 483.554L337.25 483.834L336.45 484.103L335.652 484.361L334.856 484.608L334.061 484.845L333.269 485.072L332.48 485.288L331.692 485.494L330.908 485.69L330.126 485.877L329.347 486.054L328.571 486.222L327.798 486.381L327.029 486.531L326.262 486.673L325.499 486.806L324.74 486.931L323.983 487.047L323.231 487.156L322.482 487.258L321.736 487.352L320.994 487.439L320.255 487.52L319.52 487.593L318.789 487.66L318.061 487.721L317.336 487.775L316.615 487.824L315.898 487.867L315.183 487.904L314.472 487.935L313.764 487.961L313.059 487.982L312.357 487.997L311.658 488.007L310.962 488.012L310.268 488.012L309.578 488.006L308.89 487.995L308.204 487.978L307.521 487.956L306.841 487.927L306.163 487.893L305.488 487.853L304.815 487.807L304.144 487.754L303.477 487.694L302.812 487.628L302.149 487.555L301.489 487.474L300.832 487.386L300.178 487.29L299.527 487.186L298.88 487.075L298.235 486.955L297.594 486.828L296.956 486.692L296.323 486.548L295.692 486.395L295.066 486.234L294.444 486.064L293.827 485.885L293.213 485.698L292.604 485.502L292 485.297L291.401 485.084L290.807 484.863L290.217 484.632L289.633 484.394L289.054 484.147L288.48 483.891L287.912 483.628L287.35 483.356L286.793 483.076L286.241 482.789L285.696 482.493L285.156 482.19L284.623 481.879L284.095 481.561L283.574 481.235L283.058 480.902L282.549 480.562L282.045 480.215L281.548 479.862L281.057 479.502L280.572 479.135L280.092 478.762L279.619 478.383L279.151 477.998L278.69 477.608L278.234 477.211L277.783 476.81L277.338 476.403L276.898 475.991L276.464 475.575L276.034 475.153L275.61 474.727L275.19 474.296L274.775 473.861L274.364 473.421L273.957 472.978L273.555 472.53L273.157 472.078L272.762 471.622L272.371 471.162L271.985 470.698L271.601 470.229L271.221 469.757L270.845 469.281L270.472 468.8L270.103 468.315L269.737 467.825L269.375 467.332L269.017 466.833L268.662 466.33L268.311 465.822L267.964 465.309L267.621 464.79L267.283 464.267L266.949 463.738L266.619 463.204L266.294 462.664L265.974 462.119L265.659 461.568L265.349 461.011L265.045 460.449L264.746 459.88L264.453 459.305L264.166 458.724L263.885 458.138L263.611 457.544L263.343 456.945L263.081 456.339L262.826 455.728L262.579 455.109L262.338 454.485L262.105 453.854L261.88 453.217L261.662 452.573L261.452 451.924L261.249 451.268L261.055 450.605L260.869 449.937L260.69 449.262L260.52 448.581L260.358 447.894L260.205 447.2L260.059 446.501L259.922 445.795L259.793 445.084L259.672 444.366L259.559 443.642L259.455 442.912L259.358 442.176L259.27 441.434L259.19 440.685L259.118 439.931L259.054 439.17L258.998 438.403L258.95 437.629L258.911 436.849L258.879 436.062L258.855 435.269L258.84 434.47L258.833 433.663L258.834 432.85L258.843 432.03L258.862 431.203L258.889 430.369L258.925 429.528L258.97 428.68L259.025 427.824L259.089 426.962L259.164 426.092L259.249 425.215L259.344 424.332L259.451 423.441L259.569 422.543L259.699 421.638L259.842 420.727L259.998 419.809L260.167 418.885L260.35 417.955L260.547 417.019L260.76 416.077L260.988 415.131L261.232 414.18L261.493 413.225L261.771 412.266L262.067 411.304L262.38 410.339L262.713 409.372L263.064 408.403L263.434 407.433L263.825 406.463L264.235 405.493L264.666 404.524L265.117 403.556L265.589 402.591L266.082 401.628L266.596 400.669L267.132 399.715L267.689 398.765L268.268 397.821L268.868 396.884L269.489 395.953L270.131 395.031L270.795 394.117L271.48 393.212L272.186 392.317L272.912 391.432L273.659 390.559L274.425 389.697" fill="url(#paint1_linear_2_66)"/>
<path fill-rule="evenodd" clip-rule="evenodd" d="M385.519 241.033V241.033L384.031 240.917L382.542 240.769L381.053 240.59L379.564 240.379L378.076 240.136L376.59 239.863L375.106 239.559L373.625 239.225L372.147 238.861L370.673 238.468L369.203 238.046L367.739 237.595L366.279 237.117L364.825 236.612L363.377 236.08L361.935 235.522L360.5 234.939L359.07 234.331L357.648 233.699L356.232 233.043L354.823 232.364L353.421 231.662L352.026 230.938L350.637 230.193L349.256 229.427L347.882 228.64L346.514 227.833L345.154 227.005L343.8 226.158L342.453 225.292L341.114 224.407L339.781 223.503L338.455 222.58L337.136 221.638L335.825 220.678L334.521 219.699L333.224 218.702L331.936 217.685L330.655 216.651L329.384 215.597L328.121 214.524L326.868 213.433L325.625 212.322L324.392 211.191L323.171 210.041L321.962 208.871L320.766 207.681L319.583 206.471L318.415 205.241L317.261 203.991L316.124 202.72L315.003 201.429L313.9 200.118L312.816 198.786L311.751 197.434L310.707 196.062L309.685 194.67L308.685 193.258L307.709 191.826L306.758 190.375L305.833 188.905L304.934 187.416L304.063 185.908L303.221 184.382L302.409 182.839L301.628 181.279L300.879 179.702L300.162 178.11L299.48 176.502L298.832 174.88L298.22 173.243L297.644 171.594L297.106 169.932L296.607 168.259L296.147 166.575L295.728 164.882L295.349 163.18L295.013 161.47L294.718 159.753L294.467 158.031L294.259 156.304L294.096 154.574L293.978 152.842L293.904 151.108L293.876 149.375L293.894 147.642L293.958 145.912L294.068 144.186L294.224 142.465L294.426 140.749L294.674 139.041L294.969 137.342L295.309 135.652L295.695 133.973L296.126 132.307L296.601 130.653L297.121 129.014L297.685 127.39L298.292 125.783L298.941 124.194L299.632 122.623L300.365 121.072L301.137 119.541L301.949 118.032L302.799 116.545L303.686 115.081L304.61 113.641L305.57 112.226L306.563 110.837L307.591 109.473L308.65 108.136L309.74 106.826L310.861 105.544L312.01 104.29L313.187 103.065L314.39 101.869L315.618 100.701L316.87 99.5638L318.145 98.4559L319.441 97.3777L320.757 96.3295L322.092 95.3112L323.444 94.3229L324.813 93.3643L326.197 92.4355L327.594 91.5362L329.004 90.6662L330.425 89.8253L331.857 89.0131L333.297 88.2293L334.745 87.4735L336.2 86.7453L337.661 86.0442L339.127 85.3697L340.596 84.7214L342.068 84.0985L343.542 83.5007L345.017 82.9273L346.492 82.3778L347.967 81.8516L349.44 81.3481L350.912 80.8669L352.382 80.4074L353.849 79.9691L355.313 79.5516L356.773 79.1545L358.229 78.7773L359.682 78.4197L361.129 78.0813L362.573 77.7618L364.011 77.4609L365.444 77.1783L366.873 76.9138L368.296 76.6673L369.713 76.4384L371.126 76.2272L372.533 76.0334L373.934 75.8569L375.33 75.6978L376.72 75.556L378.105 75.4314L379.484 75.324L380.857 75.2339L382.224 75.161L383.586 75.1055L384.941 75.0674L386.291 75.0466L387.634 75.0434L388.971 75.0577L390.302 75.0896L391.627 75.1391L392.945 75.2064L394.256 75.2915L395.56 75.3943L396.858 75.5149L398.147 75.6532L399.43 75.8093L400.704 75.9831L401.971 76.1745L403.23 76.3834L404.48 76.6097L405.721 76.8531L406.954 77.1134L408.177 77.3904L409.391 77.6839L410.595 77.9936L411.789 78.3193L412.974 78.6606L414.148 79.0174L415.311 79.3894L416.464 79.7762L417.606 80.1776L418.736 80.5934L419.856 81.0232L420.964 81.4667L422.06 81.9237L423.145 82.3938L424.218 82.8767L425.278 83.3722L426.327 83.8799L427.363 84.3995L428.387 84.9307L429.399 85.4731L430.397 86.0265L431.384 86.5904L432.357 87.1646L433.318 87.7487L434.266 88.3424L435.201 88.9453L436.123 89.557L437.033 90.1774L437.929 90.8059L438.813 91.4423L439.684 92.0864L440.543 92.7376L441.388 93.3958L442.221 94.0607L443.042 94.7318L443.85 95.4089L444.645 96.0918L445.428 96.78L446.199 97.4733L446.958 98.1714L447.706 98.874L448.441 99.5809L449.165 100.292L449.877 101.006L450.579 101.724L451.269 102.445L451.948 103.169L452.617 103.896L453.276 104.625L453.924 105.357L454.562 106.091L455.191 106.826L455.81 107.564L456.419 108.303L457.02 109.044L457.612 109.786L458.195 110.53L458.769 111.275L459.336 112.021L459.894 112.769L460.444 113.518L460.986 114.269L461.521 115.02L462.048 115.774L462.567 116.529L463.078 117.285L463.582 118.043L464.078 118.804L464.566 119.566L465.047 120.331L465.519 121.098L465.983 121.868L466.438 122.64L466.884 123.415L467.322 124.194L467.75 124.975L468.169 125.76L468.578 126.548L468.977 127.339L469.366 128.134L469.745 128.932L470.112 129.734L470.469 130.539L470.815 131.348L471.149 132.16L471.471 132.975L471.782 133.793L472.081 134.615L472.368 135.439L472.642 136.267L472.904 137.097L473.153 137.93L473.389 138.765L473.613 139.602L473.824 140.442L474.023 141.283L474.208 142.126L474.381 142.971L474.541 143.817L474.689 144.665L474.823 145.513L474.945 146.362L475.054 147.212L475.15 148.063L475.234 148.914L475.306 149.764L475.365 150.615L475.411 151.466L475.446 152.316L475.468 153.166L475.479 154.016L475.478 154.864L475.465 155.712L475.442 156.559L475.407 157.405L475.361 158.249L475.304 159.093L475.238 159.935L475.161 160.775L475.074 161.615L474.978 162.453L474.872 163.29L474.757 164.125L474.633 164.959L474.501 165.791L474.361 166.623L474.212 167.453L474.055 168.282L473.891 169.111L473.719 169.938L473.54 170.764L473.354 171.59L473.16 172.415L472.96 173.24L472.752 174.064L472.537 174.888L472.316 175.712L472.087 176.536L471.851 177.359L471.608 178.183L471.358 179.006L471.099 179.83L470.833 180.654L470.559 181.477L470.277 182.301L469.986 183.125L469.687 183.948L469.378 184.772L469.061 185.595L468.734 186.418L468.397 187.24L468.051 188.062L467.695 188.883L467.328 189.704L466.951 190.524L466.563 191.342L466.164 192.16L465.755 192.976L465.334 193.79L464.901 194.603L464.457 195.415L464.001 196.224L463.533 197.031L463.053 197.836L462.561 198.638L462.057 199.437L461.54 200.234L461.011 201.028L460.469 201.819L459.915 202.606L459.348 203.391L458.768 204.171L458.176 204.949L457.571 205.723L456.954 206.493L456.323 207.259L455.68 208.022L455.025 208.782L454.357 209.538L453.676 210.29L452.983 211.038L452.277 211.783L451.559 212.525L450.828 213.263L450.084 213.998L449.328 214.729L448.559 215.457L447.777 216.182L446.983 216.904L446.175 217.622L445.355 218.338L444.521 219.05L443.674 219.759L442.813 220.465L441.939 221.168L441.052 221.868L440.15 222.563L439.234 223.256L438.303 223.944L437.358 224.628L436.399 225.308L435.424 225.984L434.433 226.654L433.428 227.319L432.406 227.977L431.368 228.63L430.315 229.275L429.244 229.912L428.158 230.541L427.054 231.161L425.934 231.771L424.797 232.37L423.643 232.958L422.471 233.533L421.283 234.094L420.078 234.641L418.856 235.172L417.618 235.688L416.363 236.185L415.092 236.665L413.804 237.125L412.502 237.566L411.184 237.985L409.851 238.382L408.504 238.757L407.143 239.107L405.769 239.433L404.382 239.734L402.983 240.008L401.572 240.256L400.151 240.476L398.72 240.667L397.28 240.83L395.831 240.963L394.374 241.066L392.911 241.139L391.441 241.181L389.966 241.191L388.487 241.17L387.004 241.118L385.519 241.033" fill="url(#paint2_linear_2_66)"/>
<path fill-rule="evenodd" clip-rule="evenodd" d="M64.0827 12.3704L64.6695 12.5606L65.2531 12.7643L65.8332 12.9812L66.4096 13.2114L66.9819 13.4545L67.55 13.7105L68.1137 13.979L68.6727 14.26L69.2268 14.5532L69.776 14.8582L70.3201 15.1749L70.859 15.5031L71.3925 15.8423L71.9207 16.1924L72.4434 16.5531L72.9607 16.9242L73.4725 17.3052L73.9788 17.6961L74.4796 18.0965L74.975 18.5061L75.4649 18.9248L75.9494 19.3523L76.4286 19.7884L76.9025 20.2328L77.3712 20.6854L77.8346 21.146L78.293 21.6145L78.7462 22.0907L79.1943 22.5744L79.6375 23.0656L80.0756 23.5642L80.5087 24.07L80.9369 24.583L81.36 25.1031L81.778 25.6304L82.1909 26.1648L82.5985 26.7062L83.0008 27.2547L83.3976 27.8102L83.7888 28.3729L84.1741 28.9426L84.5533 29.5194L84.9263 30.1034L85.2927 30.6945L85.6522 31.2927L86.0046 31.8982L86.3495 32.5107L86.6867 33.1304L87.0159 33.7571L87.3365 34.3909L87.6484 35.0317L87.9512 35.6795L88.2444 36.334L88.5277 36.9953L88.8008 37.6633L89.0632 38.3377L89.3145 39.0185L89.5544 39.7054L89.7825 40.3984L89.9983 41.0971L90.2015 41.8014L90.3917 42.5111L90.5685 43.2259L90.7317 43.9454L90.8807 44.6695L91.0153 45.3977L91.1351 46.1299L91.2398 46.8655L91.3292 47.6044L91.4027 48.346L91.4603 49.0901L91.5015 49.8362L91.5261 50.5838L91.5338 51.3326L91.5244 52.0821L91.4977 52.8318L91.4534 53.5812L91.3913 54.3299L91.3113 55.0774L91.2133 55.8232L91.0972 56.5667L90.9627 57.3074L90.81 58.0448L90.639 58.7784L90.4495 59.5077L90.2418 60.2321L90.0158 60.9511L89.7716 61.6642L89.5093 62.3708L89.2291 63.0705L88.9312 63.7628L88.6156 64.4471L88.2827 65.1229L87.9327 65.7899L87.5658 66.4475L87.1825 67.0953L86.7829 67.7328L86.3674 68.3597L85.9365 68.9756L85.4904 69.58L85.0297 70.1727L84.5547 70.7532L84.0658 71.3213L83.5636 71.8766L83.0484 72.4189L82.5208 72.948L81.9813 73.4635L81.4303 73.9653L80.8684 74.4533L80.2961 74.9271L79.7138 75.3867L79.1222 75.8319L78.5216 76.2627L77.9128 76.6789L77.2961 77.0805L76.6721 77.4674L76.0414 77.8398L75.4045 78.1974L74.7618 78.5405L74.1141 78.8691L73.4617 79.1832L72.8051 79.483L72.145 79.7686L71.4818 80.0401L70.8159 80.2978L70.148 80.5418L69.4783 80.7723L68.8075 80.9895L68.1359 81.1937L67.4639 81.3852L66.792 81.5642L66.1205 81.7309L65.4499 81.8858L64.7805 82.0291L64.1125 82.161L63.4465 82.282L62.7825 82.3923L62.121 82.4923L61.4621 82.5823L60.8061 82.6625L60.1532 82.7334L59.5036 82.795L58.8574 82.8478L58.2147 82.8919L57.5757 82.9276L56.9405 82.9551L56.3092 82.9746L55.6818 82.9863L55.0584 82.9904L54.4391 82.987L53.8238 82.9763L53.2127 82.9583L52.6058 82.9333L52.003 82.9012L51.4044 82.8623L50.8101 82.8164L50.22 82.7638L49.6341 82.7044L49.0524 82.6383L48.475 82.5655L47.9019 82.4859L47.3331 82.3997L46.7686 82.3069L46.2084 82.2073L45.6526 82.101L45.1012 81.988L44.5543 81.8683L44.0118 81.7419L43.4739 81.6086L42.9405 81.4686L42.4118 81.3218L41.8878 81.1682L41.3685 81.0078L40.8541 80.8406L40.3447 80.6667L39.8402 80.4859L39.3408 80.2985L38.8466 80.1044L38.3576 79.9036L37.874 79.6963L37.3958 79.4825L36.923 79.2624L36.4558 79.036L35.9943 78.8035L35.5385 78.565L35.0884 78.3206L34.6442 78.0705L34.2058 77.8147L33.7734 77.5535L33.347 77.2869L32.9267 77.0151L32.5124 76.7382L32.1043 76.4563L31.7023 76.1697L31.3066 75.8783L30.9171 75.5825L30.5338 75.2822L30.1569 74.9777L29.7862 74.6691L29.4219 74.3566L29.0639 74.0402L28.7123 73.7201L28.367 73.3966L28.028 73.0696L27.6953 72.7394L27.369 72.4061L27.0489 72.0699L26.7352 71.7308L26.4276 71.3892L26.1263 71.045L25.8311 70.6985L25.5421 70.3497L25.2591 69.9988L24.9822 69.646L24.7113 69.2914L24.4463 68.9351L24.1871 68.5771L23.9338 68.2178L23.6862 67.8571L23.4442 67.4952L23.2079 67.1322L22.977 66.7683L22.7515 66.4034L22.5314 66.0378L22.3165 65.6716L22.1067 65.3048L21.9019 64.9375L21.7021 64.5699L21.507 64.202L21.3167 63.8339L21.131 63.4656L20.9498 63.0973L20.7729 62.7289L20.6003 62.3607L20.4319 61.9925L20.2675 61.6245L20.107 61.2566L19.9504 60.889L19.7976 60.5216L19.6484 60.1544L19.5028 59.7874L19.3607 59.4207L19.222 59.0542L19.0867 58.6879L18.9548 58.3218L18.8261 57.9558L18.7008 57.59L18.5787 57.2242L18.4599 56.8584L18.3444 56.4926L18.2323 56.1268L18.1235 55.7608L18.0183 55.3946L17.9166 55.0281L17.8185 54.6614L17.7243 54.2943L17.6339 53.9269L17.5474 53.559L17.4651 53.1907L17.387 52.8219L17.3131 52.4527L17.2437 52.083L17.1788 51.7129L17.1185 51.3423L17.0629 50.9713L17.0122 50.5998L16.9663 50.2281L16.9255 49.856L16.8897 49.4836L16.859 49.111L16.8336 48.7383L16.8134 48.3654L16.7985 47.9926L16.789 47.6197L16.7848 47.2469L16.786 46.8744L16.7927 46.5021L16.8047 46.1301L16.822 45.7585L16.8448 45.3874L16.8728 45.0169L16.9062 44.647L16.9449 44.2778L16.9888 43.9094L17.038 43.5419L17.0924 43.1753L17.1519 42.8096L17.2166 42.4451L17.2863 42.0816L17.361 41.7194L17.4406 41.3584L17.5252 40.9986L17.6145 40.6402L17.7085 40.2832L17.8072 39.9277L17.9104 39.5735L18.0181 39.2209L18.1301 38.8697L18.2463 38.5201L18.3667 38.172L18.4912 37.8254L18.6196 37.4803L18.7518 37.1367L18.8877 36.7947L19.0272 36.454L19.1702 36.1149L19.3167 35.7771L19.4664 35.4407L19.6194 35.1055L19.7755 34.7717L19.9347 34.439L20.0969 34.1075L20.262 33.7771L20.43 33.4478L20.6008 33.1194L20.7744 32.792L20.9508 32.4654L21.13 32.1397L21.312 31.8147L21.4968 31.4905L21.6844 31.1671L21.875 30.8443L22.0684 30.5222L22.2649 30.2009L22.4644 29.8802L22.6671 29.5603L22.8731 29.2411L23.0823 28.9227L23.295 28.6052L23.5112 28.2885L23.731 27.9727L23.9544 27.6579L24.1816 27.3442L24.4125 27.0315L24.6474 26.7199L24.8863 26.4096L25.1293 26.1005L25.3763 25.7929L25.6276 25.4866L25.8831 25.182L26.143 24.8789L26.4072 24.5775L26.6758 24.2779L26.9489 23.9801L27.2266 23.6844L27.5088 23.3906L27.7956 23.099L28.087 22.8095L28.3831 22.5224L28.6839 22.2376L28.9893 21.9552L29.2995 21.6753L29.6143 21.398L29.9339 21.1232L30.2582 20.8511L30.5871 20.5816L30.9208 20.3148L31.2592 20.0508L31.6022 19.7894L31.95 19.5308L32.3024 19.2749L32.6594 19.0217L33.0212 18.7712L33.3876 18.5234L33.7586 18.2783L34.1344 18.0359L34.5148 17.7961L34.8999 17.5589L35.2898 17.3243L35.6843 17.0922L36.0837 16.8628L36.4879 16.6359L36.8969 16.4115L37.3108 16.1897L37.7297 15.9704L38.1536 15.7538L38.5825 15.5397L39.0165 15.3284L39.4557 15.1197L39.9002 14.9138L40.3499 14.7108L40.805 14.5108L41.2656 14.3138L41.7316 14.1202L42.2032 13.9299L42.6804 13.7432L43.1632 13.5603L43.6517 13.3814L44.1459 13.2068L44.6458 13.0366L45.1514 12.8713L45.6627 12.711L46.1797 12.5562L46.7024 12.4071L47.2306 12.2642L47.7643 12.1278L48.3035 11.9983L48.8479 11.8761L49.3975 11.7615L49.9521 11.655L50.5115 11.5569L51.0755 11.4676L51.644 11.3875L52.2167 11.317L52.7933 11.2564L53.3736 11.2061L53.9574 11.1664L54.5443 11.1376L55.1341 11.1202L55.7263 11.1143L56.3207 11.1203L56.917 11.1383L57.5148 11.1688L58.1137 11.2119L58.7133 11.2678L59.3134 11.3366L59.9135 11.4187L60.5132 11.514L61.1121 11.6228L61.7099 11.7451L62.3063 11.881L62.9007 12.0306L63.493 12.1937L64.0827 12.3704Z" fill="url(#paint3_linear_2_66)"/>
<path fill-rule="evenodd" clip-rule="evenodd" d="M-109.339 378.22V378.22L-108.139 376.741L-106.882 375.309L-105.572 373.923L-104.215 372.582L-102.818 371.285L-101.386 370.028L-99.9252 368.809L-98.4405 367.626L-96.9373 366.476L-95.4208 365.354L-93.8954 364.258L-92.3656 363.185L-90.835 362.13L-89.307 361.09L-87.7845 360.063L-86.2698 359.044L-84.7649 358.032L-83.2711 357.023L-81.7892 356.016L-80.3196 355.008L-78.8624 353.998L-77.4173 352.986L-75.9835 351.97L-74.5611 350.95L-73.1505 349.922L-71.7521 348.884L-70.3667 347.834L-68.9948 346.767L-67.637 345.681L-66.2937 344.573L-64.9652 343.437L-63.6512 342.272L-62.3515 341.075L-61.0655 339.841L-59.7924 338.57L-58.5311 337.257L-57.2801 335.903L-56.0378 334.504L-54.8025 333.06L-53.572 331.571L-52.3442 330.035L-51.1168 328.455L-49.8872 326.83L-48.653 325.162L-47.4115 323.452L-46.1603 321.704L-44.8967 319.918L-43.6182 318.1L-42.3224 316.251L-41.007 314.377L-39.6698 312.481L-38.3086 310.567L-36.9217 308.641L-35.5073 306.707L-34.064 304.77L-32.5905 302.837L-31.0858 300.911L-29.5491 299L-27.9798 297.108L-26.3776 295.241L-24.7425 293.404L-23.0747 291.604L-21.3745 289.845L-19.6428 288.134L-17.8802 286.474L-16.0881 284.871L-14.2676 283.331L-12.4205 281.856L-10.5482 280.453L-8.6528 279.125L-6.73626 277.875L-4.8008 276.708L-2.84872 275.626L-0.882472 274.633L1.09546 273.731L3.08246 272.923L5.07586 272.21L7.07292 271.595L9.07091 271.078L11.0671 270.662L13.0586 270.346L15.0427 270.132L17.0166 270.019L18.9777 270.008L20.9232 270.099L22.8504 270.291L24.7569 270.583L26.6399 270.974L28.4971 271.465L30.3261 272.052L32.1246 272.736L33.8903 273.514L35.621 274.386L37.3146 275.348L38.9693 276.4L40.5829 277.54L42.1538 278.765L43.6801 280.073L45.1603 281.463L46.5927 282.932L47.976 284.477L49.3087 286.096L50.5897 287.787L51.8178 289.547L52.9922 291.373L54.112 293.262L55.1766 295.21L56.1858 297.213L57.1394 299.269L58.0376 301.371L58.8811 303.516L59.6707 305.697L60.4081 307.909L61.0954 310.144L61.7349 312.395L62.3297 314.654L62.8827 316.916L63.3972 319.172L63.8763 321.416L64.3236 323.643L64.7422 325.847L65.1357 328.023L65.5075 330.166L65.8609 332.272L66.1994 334.337L66.5261 336.359L66.8443 338.333L67.157 340.259L67.4672 342.133L67.7775 343.955L68.0907 345.723L68.4092 347.437L68.7351 349.096L69.0706 350.701L69.4174 352.252L69.7773 353.749L70.1515 355.194L70.5413 356.588L70.9476 357.933L71.3712 359.23L71.8125 360.482L72.2719 361.69L72.7495 362.857L73.245 363.986L73.7584 365.08L74.2892 366.14L74.8367 367.169L75.4002 368.171L75.9789 369.147L76.5718 370.101L77.178 371.035L77.7963 371.952L78.4257 372.853L79.0652 373.742L79.7135 374.619L80.3698 375.488L81.0331 376.35L81.7026 377.206L82.3775 378.058L83.0574 378.907L83.7418 379.754L84.4306 380.6L85.1238 381.444L85.8216 382.289L86.5245 383.132L87.2334 383.976L87.9492 384.818L88.6732 385.66L89.407 386.501L90.1524 387.339L90.9114 388.174L91.6865 389.006L92.4801 389.833L93.295 390.656L94.1343 391.472L95.0009 392.282L95.8981 393.085L96.8293 393.88L97.7978 394.667L98.807 395.445L99.8601 396.215L100.96 396.977L102.111 397.731L103.314 398.478L104.573 399.219L105.89 399.955L107.266 400.687L108.703 401.418L110.202 402.15L111.763 402.885L113.386 403.626L115.068 404.375L116.81 405.137L118.609 405.913L120.46 406.709L122.36 407.527L124.305 408.371L126.289 409.245L128.305 410.153L130.347 411.099L132.406 412.085L134.475 413.117L136.545 414.196L138.608 415.325L140.655 416.507L142.68 417.743L144.676 419.034L146.636 420.382L148.554 421.786L150.424 423.246L152.241 424.763L154.001 426.336L155.698 427.964L157.329 429.645L158.89 431.379L160.377 433.164L161.788 434.999L163.119 436.88L164.369 438.807L165.534 440.777L166.614 442.788L167.607 444.838L168.511 446.923L169.327 449.041L170.053 451.191L170.689 453.368L171.235 455.571L171.692 457.796L172.061 460.042L172.341 462.305L172.535 464.582L172.643 466.872L172.668 469.173L172.609 471.48L172.471 473.793L172.254 476.109L171.961 478.425L171.594 480.741L171.155 483.053L170.647 485.361L170.072 487.662L169.432 489.955L168.73 492.239L167.969 494.511L167.149 496.772L166.275 499.018L165.347 501.25L164.368 503.466L163.339 505.665L162.262 507.846L161.139 510.007L159.97 512.149L158.758 514.268L157.502 516.366L156.203 518.439L154.862 520.487L153.48 522.508L152.055 524.502L150.589 526.465L149.08 528.396L147.529 530.293L145.935 532.154L144.297 533.977L142.614 535.759L140.887 537.497L139.113 539.189L137.292 540.831L135.424 542.421L133.508 543.956L131.544 545.431L129.531 546.845L127.469 548.192L125.358 549.471L123.199 550.677L120.992 551.808L118.738 552.861L116.44 553.832L114.098 554.719L111.714 555.52L109.292 556.234L106.834 556.858L104.344 557.391L101.826 557.834L99.2825 558.186L96.7197 558.448L94.142 558.622L91.5547 558.709L88.9632 558.713L86.3732 558.638L83.7907 558.487L81.2214 558.266L78.6715 557.98L76.1465 557.637L73.6517 557.241L71.1912 556.799L68.7684 556.315L66.3861 555.795L64.0467 555.242L61.7518 554.66L59.5028 554.053L57.3008 553.425L55.1464 552.778L53.0403 552.116L50.9827 551.442L48.9738 550.758L47.0135 550.067L45.1018 549.373L43.2384 548.678L41.4231 547.984L39.6555 547.295L37.935 546.614L36.2612 545.943L34.6335 545.285L33.0511 544.645L31.5132 544.024L30.019 543.427L28.5676 542.856L27.1578 542.314L25.7886 541.806L24.4586 541.335L23.1665 540.903L21.9108 540.515L20.6899 540.173L19.502 539.881L18.3454 539.642L17.2179 539.459L16.1177 539.335L15.0423 539.273L13.9896 539.274L12.9572 539.343L11.9424 539.48L10.9428 539.688L9.95571 539.967L8.97836 540.32L8.008 540.747L7.04185 541.249L6.07708 541.827L5.11092 542.479L4.14052 543.205L3.16317 544.006L2.17614 544.879L1.17679 545.823L0.16258 546.836L-0.868938 547.915L-1.92009 549.059L-2.99307 550.263L-4.08992 551.525L-5.21251 552.842L-6.36256 554.208L-7.54158 555.621L-8.7509 557.075L-9.99166 558.566L-11.2648 560.09L-12.571 561.642L-13.9109 563.217L-15.2847 564.81L-16.6927 566.416L-18.1347 568.031L-19.6106 569.649L-21.12 571.267L-22.6624 572.879L-24.2372 574.483L-25.8435 576.072L-27.4806 577.645L-29.1475 579.197L-30.8433 580.726L-32.567 582.229L-34.3175 583.703L-36.094 585.147L-37.8953 586.558L-39.7205 587.935L-41.5688 589.278L-43.4391 590.584L-45.3308 591.854L-47.2428 593.086L-49.1745 594.281L-51.1249 595.437L-53.0931 596.554L-55.078 597.63L-57.0783 598.664L-59.0925 599.654L-61.1185 600.597L-63.154 601.489L-65.196 602.326L-67.2412 603.103L-69.2864 603.816L-71.328 604.46L-73.3631 605.032L-75.3887 605.53L-77.402 605.953L-79.4005 606.298L-81.3822 606.566L-83.3451 606.757L-85.2876 606.872L-87.2087 606.912L-89.1074 606.88L-90.9833 606.777L-92.8362 606.607L-94.6662 606.372L-96.4738 606.077L-98.2598 605.724L-100.025 605.318L-101.771 604.863L-103.499 604.362L-105.211 603.819L-106.907 603.239L-108.591 602.623L-110.264 601.977L-111.927 601.302L-113.583 600.602L-115.232 599.88L-116.877 599.136L-118.519 598.374L-120.159 597.594L-121.797 596.797L-123.436 595.984L-125.073 595.155L-126.711 594.31L-128.348 593.448L-129.984 592.569L-131.618 591.67L-133.248 590.751L-134.873 589.809L-136.49 588.843L-138.097 587.851L-139.691 586.829L-141.269 585.776L-142.828 584.688L-144.364 583.564L-145.872 582.4L-147.35 581.194L-148.791 579.943L-150.193 578.646L-151.55 577.299L-152.857 575.902L-154.11 574.451L-155.304 572.946L-156.435 571.386L-157.497 569.768L-158.488 568.094L-159.401 566.362L-160.233 564.572L-160.981 562.726L-161.641 560.823L-162.209 558.864L-162.683 556.852L-163.06 554.787L-163.338 552.672L-163.515 550.509L-163.59 548.3L-163.562 546.049L-163.43 543.759L-163.193 541.433L-162.852 539.074L-162.408 536.685L-161.862 534.272L-161.214 531.837L-160.467 529.384L-159.622 526.918L-158.682 524.443L-157.649 521.962L-156.527 519.479L-155.319 516.999L-154.028 514.526L-152.658 512.062L-151.213 509.613L-149.698 507.181L-148.117 504.77L-146.475 502.384L-144.779 500.026L-143.032 497.699L-141.242 495.406L-139.415 493.15L-137.558 490.934L-135.68 488.76L-133.787 486.63L-131.889 484.548L-129.995 482.513L-128.114 480.528L-126.255 478.594L-124.428 476.711L-122.641 474.879L-120.903 473.098L-119.224 471.367L-117.612 469.685L-116.074 468.049L-114.617 466.458L-113.249 464.91L-111.976 463.4L-110.803 461.925L-109.734 460.483L-108.773 459.068L-107.924 457.677L-107.187 456.305L-106.566 454.948L-106.058 453.601L-105.665 452.259L-105.385 450.918L-105.214 449.573L-105.151 448.219L-105.19 446.853L-105.328 445.47L-105.558 444.066L-105.874 442.637L-106.27 441.182L-106.738 439.695L-107.269 438.176L-107.856 436.622L-108.49 435.032L-109.161 433.405L-109.861 431.74L-110.579 430.037L-111.307 428.297L-112.035 426.52L-112.752 424.708L-113.452 422.863L-114.123 420.988L-114.758 419.084L-115.349 417.156L-115.887 415.207L-116.365 413.24L-116.777 411.259L-117.117 409.27L-117.378 407.276L-117.557 405.282L-117.649 403.293L-117.651 401.313L-117.561 399.347L-117.376 397.399L-117.096 395.474L-116.72 393.576L-116.249 391.708L-115.685 389.875L-115.028 388.08L-114.282 386.324L-113.45 384.612L-112.535 382.944L-111.542 381.322L-110.475 379.747L-109.339 378.22" fill="url(#paint4_linear_2_66)"/>
<path fill-rule="evenodd" clip-rule="evenodd" d="M326.372 504.961V504.961L327.731 503.363L329.174 501.83L330.694 500.363L332.283 498.956L333.933 497.609L335.635 496.317L337.383 495.075L339.168 493.88L340.982 492.728L342.819 491.613L344.672 490.53L346.534 489.475L348.4 488.443L350.265 487.429L352.125 486.428L353.975 485.437L355.814 484.452L357.639 483.47L359.448 482.487L361.24 481.502L363.016 480.513L364.775 479.519L366.519 478.519L368.247 477.51L369.958 476.492L371.651 475.459L373.325 474.409L374.978 473.337L376.609 472.24L378.218 471.112L379.803 469.951L381.363 468.751L382.9 467.509L384.412 466.221L385.901 464.886L387.369 463.499L388.815 462.059L390.243 460.565L391.655 459.015L393.053 457.409L394.44 455.747L395.819 454.03L397.194 452.26L398.568 450.438L399.946 448.568L401.33 446.651L402.725 444.693L404.134 442.696L405.561 440.666L407.01 438.608L408.485 436.526L409.989 434.428L411.525 432.318L413.097 430.203L414.706 428.09L416.356 425.986L418.049 423.896L419.787 421.828L421.571 419.789L423.402 417.786L425.283 415.824L427.212 413.912L429.191 412.055L431.22 410.26L433.298 408.533L435.424 406.879L437.598 405.305L439.818 403.816L442.083 402.417L444.39 401.112L446.738 399.905L449.124 398.801L451.547 397.804L454.002 396.916L456.487 396.14L458.999 395.479L461.535 394.935L464.091 394.509L466.664 394.203L469.251 394.017L471.847 393.953L474.45 394.01L477.056 394.189L479.661 394.488L482.261 394.908L484.853 395.448L487.434 396.105L489.999 396.88L492.546 397.769L495.071 398.772L497.57 399.886L500.041 401.11L502.481 402.44L504.885 403.875L507.252 405.412L509.579 407.049L511.862 408.781L514.1 410.608L516.289 412.526L518.427 414.532L520.512 416.622L522.542 418.795L524.514 421.045L526.428 423.371L528.28 425.768L530.069 428.232L531.795 430.759L533.456 433.344L535.052 435.983L536.581 438.671L538.044 441.4L539.442 444.166L540.775 446.96L542.045 449.774L543.254 452.6L544.405 455.429L545.501 458.254L546.544 461.066L547.539 463.858L548.489 466.624L549.397 469.358L550.267 472.054L551.103 474.706L551.909 477.311L552.688 479.864L553.445 482.362L554.183 484.803L554.906 487.183L555.617 489.5L556.32 491.754L557.019 493.944L557.715 496.069L558.413 498.128L559.115 500.124L559.824 502.056L560.541 503.925L561.269 505.733L562.009 507.482L562.764 509.174L563.534 510.811L564.32 512.396L565.123 513.932L565.944 515.421L566.783 516.866L567.64 518.271L568.515 519.638L569.407 520.971L570.315 522.273L571.24 523.547L572.181 524.796L573.135 526.023L574.103 527.231L575.084 528.422L576.075 529.599L577.077 530.765L578.088 531.921L579.107 533.069L580.134 534.212L581.167 535.351L582.206 536.487L583.251 537.621L584.301 538.754L585.357 539.886L586.419 541.019L587.488 542.152L588.565 543.286L589.651 544.42L590.747 545.554L591.857 546.688L592.981 547.821L594.123 548.953L595.286 550.083L596.473 551.211L597.687 552.337L598.933 553.458L600.214 554.577L601.535 555.691L602.899 556.802L604.312 557.908L605.778 559.011L607.3 560.111L608.884 561.208L610.534 562.304L612.252 563.4L614.044 564.497L615.912 565.598L617.858 566.704L619.885 567.818L621.994 568.943L624.185 570.081L626.46 571.236L628.816 572.412L631.253 573.611L633.767 574.837L636.355 576.095L639.011 577.388L641.731 578.72L644.507 580.094L647.332 581.515L650.196 582.985L653.091 584.507L656.006 586.086L658.929 587.722L661.851 589.417L664.761 591.174L667.65 592.993L670.508 594.874L673.328 596.817L676.101 598.821L678.819 600.887L681.477 603.013L684.067 605.196L686.582 607.437L689.019 609.732L691.37 612.079L693.632 614.477L695.799 616.921L697.869 619.411L699.837 621.942L701.7 624.512L703.456 627.117L705.103 629.756L706.638 632.423L708.06 635.117L709.367 637.833L710.56 640.57L711.638 643.322L712.601 646.088L713.449 648.864L714.182 651.647L714.803 654.434L715.313 657.223L715.712 660.01L716.003 662.793L716.188 665.569L716.269 668.337L716.249 671.094L716.13 673.837L715.916 676.565L715.609 679.277L715.211 681.97L714.727 684.642L714.158 687.294L713.509 689.922L712.78 692.526L711.976 695.105L711.099 697.658L710.151 700.183L709.134 702.68L708.051 705.147L706.903 707.583L705.691 709.988L704.418 712.36L703.083 714.697L701.688 716.999L700.233 719.264L698.717 721.489L697.142 723.673L695.506 725.815L693.809 727.911L692.05 729.959L690.228 731.957L688.341 733.902L686.389 735.789L684.37 737.617L682.282 739.381L680.125 741.079L677.896 742.705L675.594 744.256L673.218 745.728L670.768 747.117L668.242 748.418L665.64 749.629L662.963 750.744L660.21 751.761L657.383 752.675L654.482 753.483L651.511 754.183L648.471 754.773L645.365 755.249L642.198 755.612L638.974 755.861L635.696 755.995L632.373 756.015L629.008 755.923L625.61 755.722L622.185 755.415L618.741 755.007L615.286 754.502L611.83 753.908L608.379 753.23L604.945 752.478L601.534 751.659L598.155 750.783L594.814 749.855L591.516 748.883L588.267 747.873L585.069 746.831L581.926 745.761L578.84 744.668L575.813 743.556L572.846 742.43L569.941 741.293L567.099 740.149L564.32 739L561.604 737.852L558.952 736.707L556.365 735.568L553.841 734.439L551.382 733.323L548.986 732.224L546.655 731.146L544.386 730.091L542.181 729.063L540.038 728.067L537.956 727.105L535.936 726.183L533.976 725.303L532.075 724.47L530.232 723.687L528.446 722.958L526.715 722.288L525.037 721.68L523.412 721.137L521.836 720.663L520.309 720.262L518.827 719.936L517.387 719.689L515.988 719.523L514.627 719.442L513.3 719.446L512.005 719.537L510.737 719.718L509.494 719.989L508.273 720.351L507.069 720.805L505.879 721.349L504.698 721.984L503.525 722.709L502.353 723.522L501.181 724.42L500.003 725.403L498.816 726.467L497.618 727.609L496.403 728.825L495.169 730.111L493.912 731.464L492.63 732.877L491.32 734.347L489.978 735.868L488.603 737.435L487.191 739.042L485.742 740.683L484.254 742.353L482.724 744.045L481.152 745.753L479.537 747.472L477.878 749.196L476.174 750.919L474.426 752.635L472.633 754.341L470.796 756.029L468.915 757.697L466.99 759.338L465.022 760.951L463.012 762.531L460.96 764.074L458.869 765.579L456.738 767.042L454.569 768.462L452.363 769.838L450.12 771.167L447.843 772.45L445.531 773.685L443.186 774.871L440.809 776.008L438.401 777.096L435.963 778.133L433.497 779.119L431.003 780.051L428.484 780.928L425.941 781.745L423.378 782.5L420.798 783.187L418.203 783.801L415.598 784.337L412.988 784.791L410.374 785.159L407.761 785.439L405.153 785.629L402.551 785.728L399.96 785.736L397.382 785.654L394.818 785.483L392.271 785.225L389.742 784.883L387.232 784.459L384.742 783.958L382.273 783.382L379.823 782.736L377.393 782.024L374.982 781.252L372.588 780.422L370.212 779.54L367.85 778.611L365.502 777.637L363.166 776.624L360.84 775.575L358.522 774.493L356.209 773.382L353.902 772.245L351.596 771.083L349.293 769.898L346.989 768.693L344.684 767.467L342.377 766.222L340.067 764.958L337.756 763.674L335.442 762.37L333.128 761.044L330.813 759.696L328.5 758.324L326.19 756.925L323.887 755.499L321.592 754.041L319.31 752.55L317.044 751.024L314.799 749.459L312.578 747.854L310.387 746.204L308.231 744.51L306.116 742.766L304.046 740.973L302.028 739.127L300.067 737.227L298.17 735.272L296.343 733.26L294.591 731.192L292.921 729.065L291.338 726.881L289.848 724.639L288.456 722.341L287.167 719.987L285.987 717.579L284.919 715.118L283.968 712.608L283.137 710.049L282.43 707.445L281.849 704.799L281.398 702.115L281.076 699.396L280.887 696.646L280.83 693.868L280.906 691.068L281.116 688.249L281.457 685.415L281.93 682.572L282.532 679.724L283.261 676.875L284.116 674.029L285.092 671.192L286.187 668.367L287.398 665.558L288.719 662.771L290.147 660.009L291.677 657.275L293.303 654.574L295.019 651.909L296.821 649.284L298.7 646.701L300.65 644.164L302.664 641.675L304.732 639.236L306.846 636.851L308.996 634.52L311.172 632.245L313.362 630.027L315.555 627.868L317.739 625.766L319.901 623.722L322.03 621.735L324.113 619.804L326.138 617.926L328.094 616.099L329.968 614.32L331.752 612.586L333.434 610.894L335.005 609.238L336.456 607.613L337.78 606.017L338.971 604.441L340.022 602.883L340.929 601.335L341.689 599.793L342.299 598.25L342.758 596.701L343.067 595.14L343.226 593.562L343.238 591.961L343.106 590.333L342.836 588.674L342.432 586.978L341.902 585.242L341.254 583.463L340.496 581.638L339.637 579.765L338.688 577.842L337.66 575.869L336.564 573.843L335.412 571.767L334.217 569.641L332.99 567.465L331.745 565.243L330.495 562.977L329.252 560.67L328.028 558.326L326.836 555.95L325.688 553.545L324.596 551.118L323.57 548.673L322.62 546.216L321.757 543.754L320.988 541.293L320.322 538.838L319.767 536.397L319.327 533.975L319.008 531.579L318.815 529.214L318.75 526.887L318.815 524.602L319.011 522.365L319.339 520.181L319.797 518.052L320.383 515.984L321.094 513.979L321.927 512.039L322.877 510.167L323.939 508.363L325.106 506.628L326.372 504.961" fill="url(#paint5_linear_2_66)"/>
<path fill-rule="evenodd" clip-rule="evenodd" d="M337.199 893.614V893.614L338.598 891.983L340.089 890.424L341.663 888.933L343.311 887.508L345.026 886.145L346.797 884.842L348.618 883.592L350.478 882.392L352.372 881.236L354.29 880.12L356.225 879.039L358.171 877.986L360.122 876.957L362.072 875.946L364.017 874.95L365.953 873.964L367.876 872.983L369.784 872.005L371.676 871.026L373.55 870.045L375.406 869.058L377.245 868.066L379.067 867.067L380.872 866.06L382.659 865.041L384.427 864.008L386.173 862.955L387.898 861.88L389.599 860.777L391.275 859.643L392.925 858.472L394.548 857.261L396.145 856.006L397.715 854.703L399.26 853.349L400.78 851.941L402.276 850.478L403.752 848.957L405.209 847.378L406.65 845.741L408.079 844.045L409.498 842.292L410.911 840.483L412.322 838.62L413.735 836.707L415.154 834.746L416.583 832.741L418.027 830.697L419.489 828.619L420.974 826.512L422.485 824.382L424.027 822.234L425.602 820.075L427.215 817.913L428.867 815.753L430.564 813.602L432.305 811.468L434.095 809.358L435.935 807.279L437.826 805.239L439.769 803.243L441.766 801.3L443.816 799.415L445.921 797.596L448.079 795.849L450.291 794.18L452.554 792.594L454.869 791.098L457.233 789.696L459.644 788.394L462.101 787.196L464.601 786.105L467.142 785.125L469.72 784.261L472.332 783.514L474.976 782.886L477.648 782.381L480.344 782L483.062 781.744L485.796 781.614L488.544 781.61L491.302 781.732L494.065 781.981L496.831 782.356L499.594 782.857L502.352 783.481L505.1 784.228L507.835 785.096L510.554 786.084L513.251 787.189L515.925 788.409L518.571 789.742L521.186 791.186L523.768 792.738L526.311 794.395L528.814 796.154L531.274 798.013L533.688 799.969L536.052 802.018L538.365 804.157L540.623 806.384L542.825 808.694L544.968 811.084L547.051 813.551L549.07 816.09L551.025 818.698L552.913 821.37L554.735 824.101L556.488 826.886L558.173 829.72L559.788 832.597L561.335 835.509L562.814 838.449L564.227 841.409L565.576 844.379L566.864 847.352L568.093 850.318L569.266 853.27L570.387 856.2L571.46 859.102L572.488 861.969L573.474 864.796L574.424 867.577L575.34 870.307L576.227 872.983L577.089 875.602L577.93 878.159L578.753 880.654L579.562 883.083L580.362 885.446L581.154 887.742L581.943 889.97L582.732 892.131L583.524 894.225L584.321 896.252L585.126 898.215L585.94 900.114L586.767 901.953L587.607 903.732L588.462 905.455L589.333 907.123L590.221 908.741L591.126 910.31L592.049 911.835L592.991 913.318L593.95 914.762L594.927 916.171L595.92 917.548L596.931 918.896L597.957 920.219L598.997 921.519L600.052 922.8L601.119 924.063L602.197 925.312L603.286 926.55L604.385 927.778L605.492 928.998L606.606 930.212L607.728 931.422L608.856 932.63L609.989 933.835L611.129 935.04L612.275 936.244L613.427 937.449L614.586 938.654L615.754 939.86L616.931 941.067L618.12 942.274L619.322 943.481L620.54 944.687L621.777 945.893L623.036 947.098L624.32 948.3L625.633 949.501L626.979 950.699L628.363 951.894L629.788 953.086L631.26 954.274L632.783 955.46L634.361 956.644L636 957.825L637.704 959.006L639.477 960.186L641.324 961.369L643.247 962.554L645.252 963.745L647.339 964.943L649.512 966.152L651.773 967.374L654.121 968.611L656.558 969.869L659.081 971.149L661.69 972.456L664.382 973.794L667.152 975.166L669.997 976.576L672.909 978.028L675.882 979.525L678.907 981.072L681.976 982.672L685.078 984.327L688.202 986.04L691.338 987.813L694.473 989.649L697.596 991.548L700.699 993.511L703.772 995.538L706.804 997.629L709.789 999.782L712.718 1002L715.584 1004.27L718.379 1006.61L721.097 1009L723.732 1011.45L726.279 1013.95L728.732 1016.5L731.086 1019.1L733.338 1021.74L735.483 1024.42L737.519 1027.14L739.441 1029.9L741.249 1032.68L742.939 1035.49L744.51 1038.33L745.96 1041.19L747.29 1044.07L748.498 1046.96L749.584 1049.86L750.549 1052.77L751.394 1055.68L752.119 1058.6L752.726 1061.51L753.216 1064.43L753.592 1067.33L753.855 1070.22L754.008 1073.11L754.054 1075.97L753.995 1078.83L753.834 1081.66L753.574 1084.48L753.219 1087.27L752.771 1090.04L752.233 1092.78L751.609 1095.5L750.901 1098.2L750.112 1100.86L749.245 1103.5L748.302 1106.1L747.286 1108.67L746.199 1111.22L745.042 1113.72L743.818 1116.2L742.527 1118.64L741.17 1121.04L739.749 1123.4L738.263 1125.72L736.712 1128L735.097 1130.23L733.417 1132.42L731.671 1134.56L729.858 1136.65L727.977 1138.69L726.027 1140.66L724.006 1142.58L721.912 1144.44L719.744 1146.22L717.501 1147.94L715.18 1149.57L712.78 1151.13L710.3 1152.61L707.739 1153.99L705.096 1155.29L702.371 1156.48L699.563 1157.58L696.673 1158.57L693.701 1159.45L690.65 1160.22L687.52 1160.88L684.316 1161.42L681.039 1161.84L677.694 1162.14L674.286 1162.32L670.819 1162.38L667.3 1162.32L663.735 1162.14L660.132 1161.85L656.498 1161.45L652.841 1160.94L649.171 1160.33L645.497 1159.63L641.827 1158.84L638.172 1157.98L634.54 1157.04L630.941 1156.05L627.381 1155L623.866 1153.91L620.401 1152.78L616.989 1151.62L613.635 1150.43L610.341 1149.21L607.109 1147.98L603.94 1146.74L600.837 1145.49L597.799 1144.23L594.829 1142.96L591.925 1141.7L589.09 1140.45L586.322 1139.2L583.623 1137.96L580.991 1136.74L578.428 1135.54L575.933 1134.36L573.506 1133.21L571.145 1132.08L568.852 1131L566.625 1129.94L564.463 1128.93L562.366 1127.97L560.333 1127.06L558.363 1126.2L556.454 1125.4L554.605 1124.66L552.814 1123.98L551.08 1123.38L549.4 1122.85L547.773 1122.39L546.195 1122.02L544.665 1121.73L543.18 1121.52L541.736 1121.4L540.332 1121.37L538.962 1121.44L537.624 1121.6L536.315 1121.85L535.03 1122.19L533.766 1122.64L532.519 1123.18L531.285 1123.81L530.06 1124.53L528.839 1125.35L527.619 1126.26L526.396 1127.25L525.166 1128.33L523.924 1129.49L522.667 1130.73L521.392 1132.03L520.094 1133.41L518.771 1134.85L517.419 1136.35L516.035 1137.9L514.617 1139.5L513.161 1141.14L511.667 1142.81L510.131 1144.51L508.552 1146.23L506.929 1147.97L505.261 1149.72L503.546 1151.48L501.784 1153.23L499.975 1154.97L498.118 1156.7L496.213 1158.42L494.261 1160.11L492.263 1161.77L490.218 1163.4L488.128 1165L485.993 1166.55L483.815 1168.07L481.594 1169.54L479.332 1170.96L477.029 1172.34L474.687 1173.67L472.307 1174.95L469.889 1176.18L467.435 1177.36L464.946 1178.48L462.422 1179.56L459.866 1180.58L457.278 1181.54L454.66 1182.45L452.014 1183.3L449.342 1184.09L446.646 1184.82L443.93 1185.47L441.198 1186.05L438.453 1186.54L435.699 1186.95L432.941 1187.27L430.181 1187.5L427.423 1187.63L424.672 1187.67L421.928 1187.62L419.196 1187.47L416.477 1187.23L413.774 1186.9L411.088 1186.48L408.42 1185.98L405.771 1185.4L403.142 1184.74L400.533 1184.01L397.942 1183.21L395.371 1182.34L392.816 1181.42L390.278 1180.45L387.755 1179.42L385.246 1178.35L382.747 1177.24L380.259 1176.09L377.778 1174.91L375.302 1173.7L372.831 1172.46L370.362 1171.19L367.894 1169.91L365.425 1168.59L362.955 1167.26L360.482 1165.91L358.006 1164.54L355.527 1163.15L353.046 1161.73L350.563 1160.3L348.079 1158.84L345.596 1157.35L343.117 1155.84L340.643 1154.3L338.178 1152.73L335.726 1151.12L333.29 1149.48L330.874 1147.8L328.484 1146.07L326.124 1144.3L323.8 1142.49L321.517 1140.62L319.282 1138.7L317.101 1136.73L314.979 1134.71L312.923 1132.63L310.939 1130.49L309.034 1128.29L307.214 1126.04L305.484 1123.73L303.852 1121.36L302.322 1118.93L300.901 1116.45L299.593 1113.92L298.402 1111.33L297.334 1108.69L296.393 1106.01L295.581 1103.28L294.902 1100.52L294.358 1097.71L293.952 1094.87L293.685 1092.01L293.558 1089.12L293.57 1086.2L293.724 1083.27L294.016 1080.33L294.448 1077.39L295.016 1074.44L295.719 1071.49L296.555 1068.55L297.52 1065.62L298.612 1062.7L299.825 1059.81L301.157 1056.94L302.602 1054.1L304.155 1051.29L305.811 1048.52L307.564 1045.79L309.408 1043.1L311.335 1040.46L313.339 1037.87L315.41 1035.32L317.541 1032.84L319.722 1030.41L321.942 1028.03L324.191 1025.72L326.456 1023.46L328.726 1021.27L330.987 1019.13L333.227 1017.06L335.433 1015.04L337.592 1013.08L339.69 1011.18L341.717 1009.32L343.659 1007.52L345.505 1005.76L347.245 1004.04L348.868 1002.35L350.366 1000.69L351.729 999.065L352.952 997.454L354.027 995.858L354.95 994.269L355.717 992.682L356.326 991.091L356.774 989.49L357.063 987.873L357.193 986.234L357.167 984.569L356.988 982.872L356.661 981.138L356.193 979.363L355.59 977.544L354.86 975.677L354.013 973.759L353.058 971.789L352.007 969.764L350.87 967.685L349.661 965.551L348.391 963.362L347.073 961.12L345.722 958.826L344.35 956.483L342.971 954.095L341.598 951.664L340.246 949.194L338.926 946.692L337.653 944.162L336.437 941.609L335.291 939.039L334.226 936.46L333.252 933.876L332.379 931.296L331.614 928.725L330.967 926.171L330.442 923.64L330.047 921.138L329.785 918.672L329.659 916.248L329.673 913.872L329.826 911.549L330.12 909.283L330.554 907.079L331.124 904.941L331.829 902.871L332.664 900.873L333.624 898.947L334.704 897.095L335.898 895.318L337.199 893.614" fill="url(#paint6_linear_2_66)"/>
<path fill-rule="evenodd" clip-rule="evenodd" d="M-1.34808 941.661V941.661L-0.0201842 940.924L1.3409 940.244L2.73091 939.62L4.14571 939.047L5.58113 938.522L7.03323 938.042L8.49822 937.602L9.9725 937.199L11.4528 936.828L12.9359 936.484L14.4193 936.164L15.9004 935.863L17.3772 935.577L18.8479 935.301L20.3112 935.034L21.766 934.771L23.2115 934.509L24.6474 934.246L26.0736 933.979L27.4902 933.708L28.8975 933.432L30.2961 933.149L31.6867 932.859L33.0696 932.561L34.4453 932.254L35.8138 931.934L37.1755 931.6L38.5308 931.248L39.88 930.876L41.2239 930.481L42.5631 930.06L43.8987 929.61L45.2316 929.13L46.563 928.616L47.8943 928.068L49.2271 927.484L50.5628 926.862L51.9031 926.203L53.2498 925.507L54.6046 924.772L55.9692 924.001L57.3454 923.194L58.7349 922.352L60.1393 921.479L61.5602 920.575L62.999 919.644L64.457 918.689L65.9355 917.712L67.4353 916.719L68.9573 915.712L70.5022 914.695L72.0703 913.673L73.662 912.651L75.2772 911.632L76.9158 910.622L78.5774 909.624L80.2612 908.644L81.9666 907.687L83.6925 906.756L85.4376 905.856L87.2006 904.993L88.9798 904.169L90.7735 903.39L92.5798 902.658L94.3966 901.979L96.2218 901.355L98.0529 900.789L99.8877 900.286L101.724 899.846L103.558 899.475L105.389 899.172L107.213 898.941L109.027 898.784L110.83 898.701L112.618 898.693L114.388 898.763L116.139 898.91L117.867 899.135L119.57 899.438L121.245 899.819L122.891 900.278L124.504 900.814L126.082 901.426L127.624 902.113L129.127 902.875L130.59 903.71L132.01 904.616L133.385 905.592L134.715 906.637L135.997 907.749L137.229 908.925L138.412 910.163L139.542 911.463L140.62 912.821L141.644 914.235L142.613 915.704L143.525 917.225L144.382 918.796L145.18 920.414L145.921 922.077L146.603 923.783L147.225 925.53L147.789 927.314L148.293 929.134L148.738 930.987L149.123 932.869L149.45 934.779L149.718 936.713L149.93 938.667L150.086 940.639L150.187 942.625L150.237 944.621L150.238 946.621L150.194 948.623L150.107 950.62L149.984 952.608L149.827 954.583L149.641 956.539L149.431 958.474L149.2 960.384L148.953 962.266L148.694 964.116L148.426 965.934L148.153 967.715L147.879 969.459L147.607 971.165L147.341 972.831L147.083 974.456L146.837 976.04L146.605 977.583L146.389 979.084L146.191 980.545L146.013 981.965L145.857 983.346L145.724 984.689L145.616 985.994L145.532 987.263L145.474 988.497L145.441 989.699L145.435 990.869L145.454 992.01L145.499 993.124L145.569 994.211L145.663 995.275L145.78 996.317L145.92 997.339L146.08 998.343L146.261 999.33L146.46 1000.3L146.676 1001.26L146.908 1002.21L147.154 1003.15L147.412 1004.09L147.682 1005.01L147.962 1005.93L148.25 1006.85L148.545 1007.76L148.847 1008.67L149.154 1009.58L149.466 1010.49L149.782 1011.4L150.101 1012.31L150.425 1013.22L150.752 1014.13L151.083 1015.04L151.419 1015.96L151.761 1016.88L152.109 1017.79L152.465 1018.72L152.831 1019.64L153.209 1020.57L153.6 1021.49L154.006 1022.43L154.431 1023.36L154.876 1024.3L155.345 1025.25L155.839 1026.2L156.362 1027.15L156.917 1028.12L157.506 1029.09L158.131 1030.06L158.795 1031.05L159.501 1032.06L160.251 1033.07L161.045 1034.1L161.886 1035.15L162.775 1036.21L163.712 1037.3L164.697 1038.4L165.73 1039.53L166.81 1040.69L167.935 1041.88L169.103 1043.1L170.311 1044.35L171.556 1045.63L172.834 1046.95L174.14 1048.3L175.469 1049.69L176.814 1051.12L178.169 1052.59L179.527 1054.1L180.882 1055.64L182.224 1057.23L183.548 1058.85L184.846 1060.5L186.113 1062.19L187.341 1063.92L188.527 1065.67L189.666 1067.46L190.752 1069.27L191.782 1071.11L192.752 1072.97L193.659 1074.85L194.5 1076.75L195.272 1078.67L195.973 1080.6L196.6 1082.54L197.154 1084.5L197.631 1086.45L198.031 1088.42L198.353 1090.38L198.597 1092.35L198.762 1094.31L198.848 1096.26L198.857 1098.21L198.787 1100.15L198.641 1102.07L198.418 1103.99L198.12 1105.88L197.749 1107.76L197.306 1109.62L196.793 1111.46L196.211 1113.28L195.563 1115.07L194.85 1116.84L194.075 1118.58L193.24 1120.3L192.347 1121.99L191.398 1123.66L190.396 1125.29L189.344 1126.9L188.243 1128.47L187.095 1130.02L185.904 1131.53L184.671 1133.02L183.397 1134.48L182.086 1135.9L180.739 1137.3L179.357 1138.66L177.942 1139.99L176.496 1141.3L175.019 1142.56L173.514 1143.8L171.98 1145L170.42 1146.17L168.832 1147.31L167.219 1148.41L165.581 1149.47L163.917 1150.49L162.229 1151.48L160.516 1152.42L158.778 1153.31L157.016 1154.17L155.231 1154.97L153.42 1155.72L151.586 1156.43L149.729 1157.07L147.847 1157.66L145.943 1158.18L144.016 1158.65L142.066 1159.04L140.096 1159.37L138.105 1159.63L136.096 1159.81L134.068 1159.92L132.025 1159.94L129.967 1159.89L127.897 1159.76L125.817 1159.54L123.73 1159.24L121.638 1158.86L119.545 1158.4L117.452 1157.85L115.365 1157.23L113.285 1156.52L111.217 1155.74L109.163 1154.89L107.128 1153.98L105.115 1153L103.128 1151.96L101.169 1150.88L99.2427 1149.75L97.3509 1148.58L95.4963 1147.39L93.6808 1146.16L91.9057 1144.92L90.1721 1143.67L88.4805 1142.4L86.8315 1141.13L85.225 1139.86L83.6609 1138.58L82.1392 1137.31L80.6592 1136.04L79.2206 1134.78L77.8226 1133.53L76.4646 1132.29L75.1457 1131.07L73.865 1129.86L72.6215 1128.67L71.4143 1127.5L70.2421 1126.35L69.1037 1125.23L67.9979 1124.14L66.9234 1123.07L65.8786 1122.04L64.862 1121.04L63.8721 1120.07L62.9071 1119.15L61.9653 1118.26L61.0447 1117.42L60.1435 1116.62L59.2594 1115.87L58.3905 1115.17L57.5346 1114.51L56.6893 1113.92L55.8523 1113.37L55.0211 1112.88L54.1935 1112.45L53.3669 1112.08L52.5387 1111.77L51.7065 1111.52L50.8678 1111.32L50.0201 1111.19L49.1608 1111.12L48.2877 1111.12L47.3983 1111.17L46.4904 1111.28L45.5618 1111.45L44.6103 1111.68L43.6342 1111.96L42.6315 1112.3L41.6006 1112.68L40.5401 1113.12L39.4485 1113.6L38.3249 1114.13L37.1681 1114.69L35.9776 1115.3L34.7527 1115.93L33.4932 1116.6L32.1988 1117.29L30.8698 1118.01L29.5065 1118.74L28.1092 1119.49L26.6786 1120.24L25.2157 1121.01L23.7213 1121.77L22.1968 1122.53L20.6432 1123.29L19.0621 1124.04L17.455 1124.78L15.8233 1125.5L14.1686 1126.2L12.4927 1126.88L10.797 1127.53L9.08329 1128.16L7.35301 1128.76L5.60768 1129.33L3.84872 1129.87L2.07746 1130.38L0.295127 1130.85L-1.49715 1131.28L-3.29834 1131.68L-5.10751 1132.05L-6.9238 1132.37L-8.74639 1132.66L-10.5745 1132.92L-12.4071 1133.13L-14.2435 1133.31L-16.0824 1133.45L-17.9224 1133.56L-19.7617 1133.62L-21.598 1133.64L-23.4285 1133.62L-25.2498 1133.56L-27.0579 1133.44L-28.8491 1133.28L-30.6197 1133.06L-32.3663 1132.79L-34.0862 1132.46L-35.7766 1132.08L-37.4353 1131.64L-39.0606 1131.15L-40.6509 1130.6L-42.2055 1130L-43.7236 1129.35L-45.2052 1128.65L-46.6506 1127.9L-48.0602 1127.11L-49.4351 1126.28L-50.7766 1125.4L-52.0861 1124.49L-53.3656 1123.55L-54.6168 1122.57L-55.8421 1121.56L-57.0435 1120.53L-58.2235 1119.47L-59.3842 1118.39L-60.528 1117.29L-61.6571 1116.16L-62.7736 1115.03L-63.8794 1113.87L-64.9762 1112.7L-66.0655 1111.52L-67.1487 1110.33L-68.2265 1109.12L-69.2997 1107.9L-70.3686 1106.66L-71.433 1105.42L-72.4927 1104.16L-73.5468 1102.89L-74.5942 1101.6L-75.6333 1100.3L-76.6624 1098.98L-77.6791 1097.65L-78.6811 1096.3L-79.6653 1094.93L-80.6288 1093.54L-81.5681 1092.13L-82.4796 1090.7L-83.3595 1089.25L-84.2039 1087.78L-85.0086 1086.28L-85.7696 1084.77L-86.4826 1083.23L-87.1435 1081.66L-87.748 1080.08L-88.292 1078.47L-88.7717 1076.84L-89.1831 1075.19L-89.5226 1073.52L-89.7869 1071.84L-89.9727 1070.14L-90.0772 1068.42L-90.0977 1066.69L-90.0321 1064.95L-89.8783 1063.19L-89.6349 1061.44L-89.3006 1059.68L-88.8746 1057.91L-88.3565 1056.15L-87.7461 1054.39L-87.0439 1052.63L-86.2505 1050.89L-85.3669 1049.15L-84.3945 1047.43L-83.3351 1045.73L-82.1906 1044.05L-80.9634 1042.38L-79.6562 1040.74L-78.2718 1039.13L-76.8134 1037.55L-75.2842 1035.99L-73.6881 1034.47L-72.0286 1032.98L-70.3099 1031.53L-68.5361 1030.12L-66.7117 1028.75L-64.8412 1027.41L-62.9296 1026.12L-60.9818 1024.87L-59.0031 1023.66L-56.9993 1022.49L-54.9761 1021.36L-52.9401 1020.28L-50.8977 1019.24L-48.8561 1018.23L-46.8226 1017.27L-44.8047 1016.34L-42.8099 1015.45L-40.8457 1014.59L-38.9195 1013.75L-37.0385 1012.95L-35.2098 1012.16L-33.4398 1011.4L-31.7348 1010.65L-30.1004 1009.91L-28.5419 1009.17L-27.0638 1008.44L-25.67 1007.71L-24.364 1006.96L-23.1483 1006.21L-22.0248 1005.44L-20.9947 1004.64L-20.0585 1003.83L-19.2159 1002.98L-18.466 1002.1L-17.8069 1001.19L-17.2364 1000.23L-16.7512 999.234L-16.3479 998.192L-16.0219 997.104L-15.7686 995.967L-15.5824 994.781L-15.4575 993.546L-15.3878 992.26L-15.3665 990.926L-15.3868 989.543L-15.4416 988.112L-15.5235 986.637L-15.6252 985.119L-15.7393 983.562L-15.8582 981.967L-15.9746 980.341L-16.0815 978.685L-16.1716 977.006L-16.2385 975.307L-16.2755 973.594L-16.2767 971.872L-16.2363 970.146L-16.1494 968.422L-16.0109 966.705L-15.8169 965.002L-15.5636 963.317L-15.2479 961.656L-14.8673 960.025L-14.4199 958.428L-13.9042 956.87L-13.3196 955.356L-12.6658 953.89L-11.9431 952.476L-11.1525 951.117L-10.2953 949.815L-9.37331 948.574L-8.389 947.395L-7.34502 946.279L-6.24447 945.228L-5.09072 944.241L-3.88745 943.318L-2.63855 942.459L-1.34808 941.661" fill="url(#paint7_linear_2_66)"/>
</g>
<defs>
<linearGradient id="paint0_linear_2_66" x1="287" y1="-43" x2="176.5" y2="-6.99999" gradientUnits="userSpaceOnUse">
<stop stop-color="#0080F0"/>
<stop offset="1" stop-color="#B3DBFD"/>
</linearGradient>
<linearGradient id="paint1_linear_2_66" x1="251.062" y1="468.704" x2="344.766" y2="364.773" gradientUnits="userSpaceOnUse">
<stop stop-color="#0080F0"/>
<stop offset="1" stop-color="#B3DBFD"/>
</linearGradient>
<linearGradient id="paint2_linear_2_66" x1="486.533" y1="197.738" x2="307.318" y2="178.261" gradientUnits="userSpaceOnUse">
<stop stop-color="#0080F0"/>
<stop offset="1" stop-color="#B3DBFD"/>
</linearGradient>
<linearGradient id="paint3_linear_2_66" x1="18.3099" y1="20.906" x2="130.85" y2="59.7425" gradientUnits="userSpaceOnUse">
<stop offset="0.498583" stop-color="#0080F0"/>
<stop offset="1" stop-color="#B3DBFD"/>
</linearGradient>
<linearGradient id="paint4_linear_2_66" x1="10.2187" y1="234.501" x2="-83.5792" y2="443.386" gradientUnits="userSpaceOnUse">
<stop offset="0.171875" stop-color="#B3DBFD"/>
<stop offset="0.802083" stop-color="#0080F0"/>
</linearGradient>
<linearGradient id="paint5_linear_2_66" x1="462.354" y1="350.125" x2="348.655" y2="576.71" gradientUnits="userSpaceOnUse">
<stop offset="0.171875" stop-color="#B3DBFD"/>
<stop offset="0.802083" stop-color="#0080F0"/>
</linearGradient>
<linearGradient id="paint6_linear_2_66" x1="428.974" y1="1132.76" x2="618.844" y2="987.775" gradientUnits="userSpaceOnUse">
<stop offset="0.136291" stop-color="#B3DBFD"/>
<stop offset="0.7065" stop-color="#0080F0"/>
</linearGradient>
<linearGradient id="paint7_linear_2_66" x1="130.026" y1="871.083" x2="-3.20863" y2="996.688" gradientUnits="userSpaceOnUse">
<stop offset="0.171875" stop-color="#B3DBFD"/>
<stop offset="0.802083" stop-color="#0080F0"/>
</linearGradient>
<clipPath id="clip0_2_66">
<rect width="374" height="1080" fill="white"/>
</clipPath>
</defs>
</svg>
