<svg width="114" height="51" viewBox="0 0 114 51" fill="none" xmlns="http://www.w3.org/2000/svg">
<path d="M86.9173 24.9796C86.9173 37.9132 76.4774 48.398 63.5992 48.398C50.721 48.398 40.281 37.9132 40.281 24.9796C40.281 12.046 50.721 1.56122 63.5992 1.56122C76.4774 1.56122 86.9173 12.046 86.9173 24.9796Z" fill="#8B8B94"/>
<path d="M112.064 24.9796C112.064 37.9132 101.727 48.398 88.9748 48.398C76.2229 48.398 65.8853 37.9132 65.8853 24.9796C65.8853 12.046 76.2229 1.56122 88.9748 1.56122C101.727 1.56122 112.064 12.046 112.064 24.9796Z" fill="#1C1C25"/>
<path d="M76.3494 44.5902C82.7131 40.4086 86.9173 33.1873 86.9173 24.9796C86.9173 16.7721 82.7131 9.55068 76.3494 5.36909C70.0482 9.55068 65.8853 16.7721 65.8853 24.9796C65.8853 33.1873 70.0482 40.4086 76.3494 44.5902Z" fill="#1666DD"/>
<path d="M12.6054 37.2449H8.1054L16.2986 13.9722H21.5031L29.7077 37.2449H25.2077L18.9918 18.7449H18.8099L12.6054 37.2449ZM12.7531 28.1199H25.0259V31.5063H12.7531V28.1199ZM35.9548 19.7904L39.4776 26.2335L43.0571 19.7904H47.4094L42.148 28.5176L47.5003 37.2449H43.1707L39.4776 30.9608L35.8185 37.2449H31.4548L36.773 28.5176L31.5912 19.7904H35.9548ZM57.6622 37.5858C55.9122 37.5858 54.4009 37.2222 53.1281 36.4949C51.863 35.76 50.8895 34.7222 50.2077 33.3813C49.5259 32.0328 49.1849 30.4457 49.1849 28.6199C49.1849 26.8244 49.5259 25.2487 50.2077 23.8926C50.8971 22.529 51.8592 21.4684 53.094 20.7108C54.3289 19.9457 55.7796 19.5631 57.4463 19.5631C58.5221 19.5631 59.5372 19.7373 60.4918 20.0858C61.4539 20.4267 62.3024 20.957 63.0372 21.6767C63.7796 22.3964 64.363 23.3131 64.7872 24.4267C65.2115 25.5328 65.4236 26.851 65.4236 28.3813V29.6426H51.1168V26.8699H61.4804C61.4728 26.082 61.3024 25.3813 60.969 24.7676C60.6357 24.1464 60.1698 23.6578 59.5713 23.3017C58.9804 22.9457 58.291 22.7676 57.5031 22.7676C56.6622 22.7676 55.9236 22.9722 55.2872 23.3813C54.6509 23.7828 54.1546 24.3131 53.7986 24.9722C53.4501 25.6237 53.2721 26.3396 53.2645 27.1199V29.5404C53.2645 30.5555 53.4501 31.4267 53.8213 32.154C54.1925 32.8737 54.7115 33.4267 55.3781 33.8131C56.0448 34.1919 56.8251 34.3813 57.719 34.3813C58.3175 34.3813 58.8592 34.2979 59.344 34.1313C59.8289 33.957 60.2493 33.7032 60.6054 33.3699C60.9615 33.0366 61.2304 32.6237 61.4122 32.1313L65.2531 32.5631C65.0107 33.5782 64.5486 34.4646 63.8668 35.2222C63.1925 35.9722 62.3289 36.5555 61.2759 36.9722C60.2228 37.3813 59.0183 37.5858 57.6622 37.5858ZM69.0855 37.2449V13.9722H73.3014V33.7108H83.5514V37.2449H69.0855Z" fill="#090843"/>
</svg>
